<svg width="27" height="27" viewBox="0 0 27 27" fill="none" xmlns="http://www.w3.org/2000/svg">
<g clip-path="url(#clip0)">
<path d="M15.9893 13.9961C15.9893 15.3704 14.8752 16.4844 13.501 16.4844C12.1267 16.4844 11.0127 15.3704 11.0127 13.9961C11.0127 12.6218 12.1267 11.5078 13.501 11.5078C14.8752 11.5078 15.9893 12.6218 15.9893 13.9961Z" fill="#AFDCF0"/>
<path d="M19.3203 9.59419C19.2006 9.27006 19.0098 8.97668 18.7619 8.73587C18.521 8.48791 18.2279 8.29709 17.9035 8.17747C17.6405 8.07532 17.2454 7.95372 16.5176 7.92059C15.7303 7.88469 15.4942 7.87695 13.501 7.87695C11.5077 7.87695 11.2716 7.88449 10.4845 7.92039C9.75671 7.95372 9.36137 8.07532 9.09854 8.17747C8.77422 8.29709 8.48083 8.48791 8.24022 8.73587C7.99226 8.97668 7.80144 9.26987 7.68163 9.59419C7.57947 9.85722 7.45787 10.2526 7.42474 10.9804C7.38884 11.7675 7.3811 12.0035 7.3811 13.9969C7.3811 15.99 7.38884 16.2261 7.42474 17.0134C7.45787 17.7412 7.57947 18.1364 7.68163 18.3994C7.80144 18.7237 7.99207 19.0169 8.24002 19.2577C8.48083 19.5057 8.77402 19.6965 9.09834 19.8161C9.36137 19.9185 9.75671 20.0401 10.4845 20.0732C11.2716 20.1091 11.5075 20.1166 13.5008 20.1166C15.4944 20.1166 15.7305 20.1091 16.5174 20.0732C17.2452 20.0401 17.6405 19.9185 17.9035 19.8161C18.5546 19.565 19.0691 19.0504 19.3203 18.3994C19.4224 18.1364 19.544 17.7412 19.5773 17.0134C19.6132 16.2261 19.6208 15.99 19.6208 13.9969C19.6208 12.0035 19.6132 11.7675 19.5773 10.9804C19.5442 10.2526 19.4226 9.85722 19.3203 9.59419ZM13.501 17.8299C11.3839 17.8299 9.66765 16.1138 9.66765 13.9967C9.66765 11.8795 11.3839 10.1635 13.501 10.1635C15.618 10.1635 17.3342 11.8795 17.3342 13.9967C17.3342 16.1138 15.618 17.8299 13.501 17.8299ZM17.4858 10.9078C16.9911 10.9078 16.59 10.5067 16.59 10.0119C16.59 9.51723 16.9911 9.11613 17.4858 9.11613C17.9805 9.11613 18.3816 9.51723 18.3816 10.0119C18.3814 10.5067 17.9805 10.9078 17.4858 10.9078Z" fill="#AFDCF0"/>
<path d="M13.501 0.996094C6.32237 0.996094 0.500977 6.81749 0.500977 13.9961C0.500977 21.1747 6.32237 26.9961 13.501 26.9961C20.6796 26.9961 26.501 21.1747 26.501 13.9961C26.501 6.81749 20.6796 0.996094 13.501 0.996094ZM20.9208 17.0737C20.8847 17.8684 20.7583 18.4109 20.5739 18.8858C20.1861 19.8885 19.3934 20.6812 18.3907 21.069C17.916 21.2534 17.3732 21.3796 16.5788 21.4159C15.7828 21.4522 15.5285 21.4609 13.5012 21.4609C11.4737 21.4609 11.2196 21.4522 10.4234 21.4159C9.62891 21.3796 9.08618 21.2534 8.6115 21.069C8.1132 20.8815 7.66212 20.5877 7.2892 20.2079C6.90953 19.8351 6.61575 19.3839 6.4283 18.8858C6.24382 18.4111 6.11746 17.8684 6.08136 17.0739C6.04466 16.2777 6.03613 16.0234 6.03613 13.9961C6.03613 11.9688 6.04466 11.7145 6.08116 10.9185C6.11726 10.1238 6.24342 9.5813 6.4279 9.10641C6.61536 8.60832 6.90933 8.15704 7.2892 7.78432C7.66193 7.40445 8.1132 7.11067 8.6113 6.92322C9.08618 6.73874 9.62871 6.61258 10.4234 6.57628C11.2194 6.53998 11.4737 6.53125 13.501 6.53125C15.5283 6.53125 15.7826 6.53998 16.5786 6.57648C17.3732 6.61258 17.9158 6.73874 18.3907 6.92302C18.8887 7.11047 19.34 7.40445 19.713 7.78432C20.0926 8.15724 20.3866 8.60832 20.5739 9.10641C20.7585 9.5813 20.8847 10.1238 20.921 10.9185C20.9573 11.7145 20.9658 11.9688 20.9658 13.9961C20.9658 16.0234 20.9573 16.2777 20.9208 17.0737Z" fill="#AFDCF0"/>
</g>
<defs>
<clipPath id="clip0">
<rect x="0.500977" y="0.996094" width="26" height="26" fill="white"/>
</clipPath>
</defs>
</svg>
