<svg width="110" height="30" viewBox="0 0 110 30" fill="none" xmlns="http://www.w3.org/2000/svg">
<path d="M107.311 8.0925L101.389 21.4597L95.4668 8.05943C95.3131 7.6616 95.0281 7.4632 94.612 7.4632C94.3486 7.4632 94.1026 7.55723 93.8719 7.7453C93.6423 7.93337 93.5265 8.15967 93.5265 8.42524C93.5265 8.55854 93.5593 8.6908 93.6249 8.82307L100.369 23.6163L98.0334 28.7581C97.9678 28.8914 97.935 29.0227 97.935 29.156C97.935 29.3988 98.0283 29.5982 98.2149 29.7532C98.4014 29.9072 98.6146 29.9847 98.8555 29.9847C99.2501 29.9847 99.5351 29.7966 99.7114 29.4215L109.021 8.8241C109.087 8.69183 109.12 8.5482 109.12 8.3932C109.12 8.15037 109.021 7.93957 108.825 7.76287C108.627 7.58617 108.407 7.4973 108.167 7.4973C107.771 7.49627 107.486 7.69467 107.311 8.0925ZM84.1478 22.3546C82.4586 22.3546 81.165 21.7904 80.2661 20.663C79.3661 19.5356 78.9172 17.9102 78.9172 15.7877C78.9172 13.7097 79.3784 12.0894 80.2989 10.929C81.2193 9.76753 82.5139 9.18784 84.1806 9.18784C85.8257 9.18784 87.1141 9.76857 88.0458 10.929C88.9786 12.0894 89.4439 13.7097 89.4439 15.7877C89.4439 17.9112 88.9837 19.5356 88.0622 20.663C87.1418 21.7904 85.837 22.3546 84.1478 22.3546ZM84.1806 24.1464C85.6289 24.1464 86.9112 23.8033 88.0305 23.1182C89.1498 22.4321 90.0097 21.4597 90.6135 20.199C91.2162 18.9384 91.5175 17.4679 91.5175 15.7877C91.5175 14.1075 91.2162 12.6361 90.6135 11.3764C90.0097 10.1158 89.1498 9.1434 88.0305 8.45727C86.9122 7.77114 85.6289 7.4291 84.1806 7.4291C82.7107 7.4291 81.4223 7.77217 80.3153 8.45727C79.2073 9.14237 78.3463 10.1158 77.7323 11.3764C77.1183 12.6361 76.8108 14.1065 76.8108 15.7877C76.8108 17.4679 77.1183 18.9384 77.7323 20.199C78.3463 21.4597 79.2073 22.4321 80.3153 23.1182C81.4223 23.8033 82.7117 24.1464 84.1806 24.1464ZM71.5485 3.74733C71.9861 3.74733 72.3439 3.61404 72.6175 3.3495C72.8912 3.08497 73.0286 2.7419 73.0286 2.32237C73.0286 1.8801 72.8912 1.52567 72.6175 1.26114C72.3439 0.995569 71.9861 0.862269 71.5485 0.862269C71.1087 0.862269 70.7531 0.995569 70.4784 1.26114C70.2047 1.52567 70.0673 1.8801 70.0673 2.32237C70.0673 2.7419 70.2047 3.08497 70.4784 3.3495C70.752 3.61507 71.1087 3.74733 71.5485 3.74733ZM66.7443 29.9496L67.633 29.8845C69.3211 29.7729 70.5614 29.2707 71.3506 28.3748C72.1399 27.4789 72.5355 26.0911 72.5355 24.2125V8.52444C72.5355 8.19273 72.4474 7.93853 72.2721 7.76183C72.0958 7.58513 71.856 7.49627 71.5485 7.49627C71.241 7.49627 70.9939 7.58513 70.8084 7.76183C70.6219 7.93853 70.5286 8.19273 70.5286 8.52444V24.3127C70.5286 25.6829 70.2652 26.6615 69.7393 27.2474C69.2125 27.8323 68.4007 28.1588 67.3039 28.226L66.4153 28.2921C65.7798 28.3582 65.461 28.6455 65.461 29.1539C65.461 29.7512 65.8894 30.0167 66.7443 29.9496ZM64.2443 24.0802C64.5293 24.0802 64.766 23.9914 64.9516 23.8147C65.1381 23.638 65.2314 23.3838 65.2314 23.0521V1.3934C65.2314 1.0617 65.1381 0.807502 64.9516 0.629769C64.765 0.454102 64.5293 0.365234 64.2443 0.365234C63.9368 0.365234 63.6908 0.454102 63.5043 0.629769C63.3177 0.807502 63.2244 1.0617 63.2244 1.3934V23.0521C63.2244 23.3838 63.3177 23.638 63.5043 23.8147C63.6908 23.9914 63.9368 24.0802 64.2443 24.0802ZM51.1499 22.3887C50.1188 22.3887 49.2527 22.0849 48.5505 21.4762C47.8484 20.8686 47.4979 20.0998 47.4979 19.1709C47.4979 18.3535 47.7275 17.7283 48.1887 17.2974C48.6489 16.8655 49.4382 16.5627 50.5575 16.385C51.6758 16.2083 53.2881 16.1205 55.3945 16.1205H56.0197V17.2148C56.0197 18.7183 55.5636 19.9572 54.6544 20.9296C53.7442 21.902 52.5757 22.3887 51.1499 22.3887ZM52.2364 7.4291C51.315 7.4291 50.3832 7.55103 49.4402 7.79387C48.4972 8.0367 47.6414 8.37977 46.8736 8.82204C46.1059 9.28703 45.7215 9.76237 45.7215 10.248C45.7215 10.4909 45.7923 10.6955 45.9358 10.8618C46.0782 11.0282 46.2586 11.1109 46.479 11.1109C46.6758 11.1109 46.9116 11.0168 47.1863 10.8288C47.4599 10.6417 47.6301 10.525 47.6957 10.4805C49.1655 9.6177 50.7112 9.1868 52.3348 9.1868C53.6069 9.1868 54.5396 9.52367 55.131 10.1984C55.7225 10.8742 56.0197 11.9396 56.0197 13.3987V14.6263H55.3289C52.7623 14.6263 50.7666 14.7709 49.3408 15.0582C47.915 15.3455 46.8952 15.826 46.2812 16.5007C45.6672 17.1755 45.371 18.12 45.3925 19.3362C45.3925 20.2435 45.6447 21.0608 46.149 21.7904C46.6533 22.5209 47.3277 23.0955 48.1723 23.515C49.0169 23.9345 49.9538 24.1453 50.9859 24.1453C52.1257 24.1453 53.1343 23.8746 54.0117 23.3321C54.8891 22.7906 55.5585 22.0218 56.0187 21.0267V23.0169C56.0187 23.3259 56.1058 23.576 56.2821 23.763C56.4574 23.9511 56.6983 24.0451 57.0058 24.0451C57.3133 24.0451 57.5541 23.9511 57.7294 23.763C57.9047 23.5749 57.9928 23.3259 57.9928 23.0169V13.564C57.9928 11.5077 57.5162 9.9711 56.5619 8.95327C55.6087 7.93853 54.1655 7.4291 52.2364 7.4291ZM35.0626 9.0876C36.5755 9.0876 37.7491 9.5681 38.5824 10.5301C39.4157 11.4922 39.8544 12.8572 39.8975 14.6263H29.7336C29.9089 12.8799 30.4572 11.5201 31.3787 10.5467C32.2992 9.5743 33.5271 9.0876 35.0626 9.0876ZM40.8528 20.4646C40.656 20.4646 40.3157 20.631 39.8339 20.9616C39.1093 21.3822 38.4297 21.7201 37.7942 21.9733C37.1577 22.2275 36.3684 22.3546 35.4254 22.3546C33.6265 22.3546 32.2346 21.8234 31.2475 20.7622C30.2604 19.701 29.7346 18.1541 29.669 16.1194H40.6252C41.0199 16.1194 41.3048 16.0254 41.4811 15.8373C41.6564 15.6493 41.7435 15.3568 41.7435 14.959C41.7435 12.6154 41.1459 10.775 39.9508 9.43584C38.7546 8.0987 37.1269 7.4291 35.0656 7.4291C33.5958 7.4291 32.2961 7.77734 31.1665 8.4738C30.036 9.1713 29.1596 10.154 28.5343 11.426C27.9091 12.6981 27.5975 14.1623 27.5975 15.8208C27.5975 18.4072 28.2986 20.4429 29.7039 21.9237C31.1071 23.4055 33.0269 24.1464 35.4613 24.1464C37.2161 24.1464 38.8838 23.671 40.4623 22.7193C41.2074 22.2554 41.5816 21.78 41.5816 21.2933C41.5816 21.0722 41.5098 20.879 41.3673 20.7126C41.2208 20.5473 41.0506 20.4646 40.8528 20.4646ZM18.1193 7.4291C16.8914 7.4291 15.8049 7.7112 14.8629 8.2754C13.9199 8.83857 13.2167 9.61874 12.7575 10.6138C12.0113 8.49034 10.3775 7.4291 7.85496 7.4291C6.71516 7.4291 5.71066 7.6895 4.84453 8.20927C3.97738 8.72904 3.31421 9.48647 2.85398 10.4816V8.49137C2.85398 8.18137 2.77096 7.93853 2.60798 7.76183C2.44296 7.58513 2.20721 7.49627 1.90073 7.49627C1.59323 7.49627 1.34621 7.58513 1.16068 7.76183C0.974134 7.93853 0.880859 8.19273 0.880859 8.52444V23.0521C0.880859 23.361 0.973109 23.6111 1.16068 23.7981C1.34723 23.9862 1.59323 24.0802 1.90073 24.0802C2.20823 24.0802 2.44808 23.9862 2.62438 23.7981C2.79966 23.6101 2.88781 23.361 2.88781 23.0521V14.5942C2.88781 12.9585 3.31011 11.6534 4.15471 10.68C4.99828 9.7076 6.13296 9.2209 7.55976 9.2209C8.80923 9.2209 9.71943 9.5805 10.2904 10.2987C10.8603 11.0168 11.1462 12.1845 11.1462 13.7975V23.0521C11.1462 23.361 11.2385 23.6111 11.4261 23.7981C11.6126 23.9862 11.8586 24.0802 12.1661 24.0802C12.4726 24.0802 12.7135 23.9862 12.8898 23.7981C13.065 23.6101 13.1522 23.361 13.1522 23.0521V14.5942C13.1522 12.9585 13.5745 11.6534 14.4191 10.68C15.2626 9.7076 16.3983 9.2209 17.8241 9.2209C19.0746 9.2209 19.9838 9.5805 20.5547 10.2987C21.1256 11.0168 21.4106 12.1845 21.4106 13.7975V23.0521C21.4106 23.361 21.5039 23.6111 21.6904 23.7981C21.877 23.9862 22.123 24.0802 22.4305 24.0802C22.738 24.0802 22.9788 23.9862 23.1541 23.7981C23.3294 23.6101 23.4175 23.361 23.4175 23.0521V13.6653C23.4165 9.50817 21.6504 7.4291 18.1193 7.4291Z" fill="black"/>
</svg>
