<svg width="27" height="27" viewBox="0 0 27 27" fill="none" xmlns="http://www.w3.org/2000/svg">
<g clip-path="url(#clip0)">
<path d="M13.5015 26.9961C20.6812 26.9961 26.5015 21.1758 26.5015 13.9961C26.5015 6.81639 20.6812 0.996094 13.5015 0.996094C6.32176 0.996094 0.501465 6.81639 0.501465 13.9961C0.501465 21.1758 6.32176 26.9961 13.5015 26.9961Z" fill="#3495BF"/>
<path fill-rule="evenodd" clip-rule="evenodd" d="M13.0104 19.6974H14.0307C14.0307 19.6974 14.3389 19.6636 14.4963 19.4939C14.6411 19.3382 14.6365 19.0458 14.6365 19.0458C14.6365 19.0458 14.6166 17.6767 15.252 17.475C15.8784 17.2764 16.6827 18.7983 17.5353 19.3834C18.18 19.8263 18.6699 19.7292 18.6699 19.7292L20.9495 19.6974C20.9495 19.6974 22.142 19.6239 21.5766 18.6863C21.5302 18.6096 21.2473 17.9927 19.8816 16.7251C18.4523 15.3984 18.6437 15.613 20.3655 13.3181C21.4141 11.9205 21.8333 11.0673 21.7024 10.7018C21.5775 10.3538 20.8063 10.4458 20.8063 10.4458L18.2395 10.4617C18.2395 10.4617 18.0493 10.4358 17.9081 10.5201C17.7703 10.6029 17.6815 10.7957 17.6815 10.7957C17.6815 10.7957 17.2753 11.8772 16.7335 12.797C15.5905 14.7378 15.1336 14.8402 14.9468 14.7197C14.5123 14.4388 14.6207 13.5914 14.6207 12.9893C14.6207 11.1085 14.906 10.3243 14.0652 10.1213C13.7862 10.0539 13.5809 10.0094 12.8674 10.0022C11.9516 9.99271 11.1764 10.005 10.7375 10.22C10.4455 10.363 10.2203 10.6817 10.3575 10.7C10.5271 10.7227 10.9113 10.8036 11.115 11.081C11.378 11.4388 11.3688 12.2424 11.3688 12.2424C11.3688 12.2424 11.5198 14.4564 11.0158 14.7315C10.6698 14.9201 10.1952 14.535 9.17629 12.7743C8.65418 11.8723 8.26 10.8754 8.26 10.8754C8.26 10.8754 8.18399 10.6891 8.04842 10.5894C7.88389 10.4687 7.654 10.4302 7.654 10.4302L5.21497 10.4462C5.21497 10.4462 4.84882 10.4564 4.71442 10.6156C4.59484 10.7572 4.70492 11.0501 4.70492 11.0501C4.70492 11.0501 6.61443 15.5176 8.77654 17.7689C10.7591 19.833 13.0104 19.6974 13.0104 19.6974Z" fill="#C5E9F8"/>
</g>
<defs>
<clipPath id="clip0">
<rect x="0.501465" y="0.996094" width="26" height="26" fill="white"/>
</clipPath>
</defs>
</svg>
